<?xml version="1.0"?>
<svg xmlns="http://www.w3.org/2000/svg" id="_x33_0" enable-background="new 0 0 64 64" height="512px" viewBox="0 0 64 64" width="512px"><g><path d="m27 49h6v2h-6z" data-original="#000000" class="active-path" data-old_color="#000000" fill="#B0150D"/><path d="m35 49h6v2h-6z" data-original="#000000" class="active-path" data-old_color="#000000" fill="#B0150D"/><path d="m43 49h6v2h-6z" data-original="#000000" class="active-path" data-old_color="#000000" fill="#B0150D"/><path d="m51 49h6v2h-6z" data-original="#000000" class="active-path" data-old_color="#000000" fill="#B0150D"/><path d="m53 35h-4v-7h2v-6h-4v-1c0-.551.448-1 1-1h4c2.757 0 5-2.243 5-5v-1.019c3.352-.256 6-3.065 6-6.481 0-3.584-2.916-6.5-6.5-6.5h-1.5v2h1.5c2.481 0 4.5 2.019 4.5 4.5s-2.019 4.5-4.5 4.5h-1.5v3c0 1.654-1.346 3-3 3h-4c-1.654 0-3 1.346-3 3v1h-2v-1c0-2.757 2.243-5 5-5h4l.196-1.98-.583-.117c-2.093-.419-3.613-2.273-3.613-4.408 0-2.478 2.017-4.495 4.495-4.495h.505v-2h-.505c-3.581 0-6.495 2.914-6.495 6.495 0 1.728.688 3.327 1.825 4.507-3.779.093-6.825 3.197-6.825 6.998v1h-4v6h2v7h-4v6h-2v-12c0-1.654-1.346-3-3-3h-1.097c-.503-2.687-2.998-4.654-5.903-5.806v-4.194c0-1.654-1.346-3-3-3h-6c-1.654 0-3 1.346-3 3v4.194c-2.905 1.152-5.4 3.119-5.903 5.806h-1.097c-1.654 0-3 1.346-3 3v34h62v-22h-10zm-14-11h10v2h-10zm2 4h6v7h-6zm-4 9h14v4h-14zm-16 12h-18v-10h28v2h-10zm-8-33c0-.551.448-1 1-1h6c.552 0 1 .449 1 1v3.542c-1.373-.357-2.757-.542-4-.542s-2.627.185-4 .542zm4 5c3.691 0 8.879 1.92 9.832 5h-19.664c.953-3.08 6.141-5 9.832-5zm-13 7h26c.552 0 1 .449 1 1v8h-28v-8c0-.551.448-1 1-1zm-1 33v-10h18v10zm28-4h-2v-2h2zm-2 2h2v2h-2zm10-2h-2v-2h2zm-2 2h2v2h-2zm10-2h-2v-2h2zm-2 2h2v2h-2zm10-2h-2v-2h2zm-2 2h2v2h-2zm4 2v-8h-6v8h-2v-8h-6v8h-2v-8h-6v8h-2v-8h-6v8h-4v-14h38v14zm4-16h-38v-2h38z" data-original="#000000" class="active-path" data-old_color="#000000" fill="#B0150D"/></g> </svg>
