<?xml version="1.0"?>
<svg xmlns="http://www.w3.org/2000/svg" height="512px" viewBox="-31 0 512 512" width="512px" class=""><g><path d="m105 451h75v61h270v-361h-60v-60h-60v-61h60v-30h-150v30h60v61h-60v60h-60v270h-75c-19.554688 0-36.226562-12.539062-42.421875-30h27.421875v-270h-30v-48.488281l-31.539062-64.132813-26.921876 13.242188 28.460938 57.867187v41.511719h-30v270h31.507812c6.96875 34.191406 37.273438 60 73.492188 60zm165-330h90v30h-90zm-60 60h210v301h-210zm-180-30h30v210h-30zm0 0" data-original="#000000" class="active-path" data-old_color="#000000" fill="#B1150D"/><path d="m315 241c-41.355469 0-75 33.644531-75 75s33.644531 75 75 75 75-33.644531 75-75-33.644531-75-75-75zm0 30c6.9375 0 13.515625 1.582031 19.390625 4.398438l-59.992187 59.992187c-2.816407-5.875-4.398438-12.453125-4.398438-19.390625 0-24.8125 20.1875-45 45-45zm0 90c-6.9375 0-13.515625-1.582031-19.390625-4.398438l59.992187-59.992187c2.816407 5.875 4.398438 12.453125 4.398438 19.390625 0 24.8125-20.1875 45-45 45zm0 0" data-original="#000000" class="active-path" data-old_color="#000000" fill="#B1150D"/></g> </svg>
